<?xml version="1.0" encoding="utf-8"?>
<svg xmlns="http://www.w3.org/2000/svg" xmlns:xlink="http://www.w3.org/1999/xlink" width="400" height="250" viewBox="0 0 1600 1000">
<defs>
  <clipPath id="clip230">
    <rect x="0" y="0" width="1600" height="1000"/>
  </clipPath>
</defs>
<path clip-path="url(#clip230)" d="
M0 1000 L1600 1000 L1600 0 L0 0  Z
  " fill="#ffffff" fill-rule="evenodd" fill-opacity="1"/>
<defs>
  <clipPath id="clip231">
    <rect x="320" y="0" width="1121" height="1000"/>
  </clipPath>
</defs>
<path clip-path="url(#clip230)" d="
M230.072 812.3 L1537.01 812.3 L1537.01 330.415 L230.072 330.415  Z
  " fill="#ffffff" fill-rule="evenodd" fill-opacity="1"/>
<defs>
  <clipPath id="clip232">
    <rect x="230" y="330" width="1308" height="483"/>
  </clipPath>
</defs>
<polyline clip-path="url(#clip232)" style="stroke:#000000; stroke-linecap:round; stroke-linejoin:round; stroke-width:2; stroke-opacity:0.1; fill:none" points="
  267.061,812.3 267.061,330.415 
  "/>
<polyline clip-path="url(#clip232)" style="stroke:#000000; stroke-linecap:round; stroke-linejoin:round; stroke-width:2; stroke-opacity:0.1; fill:none" points="
  567.782,812.3 567.782,330.415 
  "/>
<polyline clip-path="url(#clip232)" style="stroke:#000000; stroke-linecap:round; stroke-linejoin:round; stroke-width:2; stroke-opacity:0.1; fill:none" points="
  868.504,812.3 868.504,330.415 
  "/>
<polyline clip-path="url(#clip232)" style="stroke:#000000; stroke-linecap:round; stroke-linejoin:round; stroke-width:2; stroke-opacity:0.1; fill:none" points="
  1169.23,812.3 1169.23,330.415 
  "/>
<polyline clip-path="url(#clip232)" style="stroke:#000000; stroke-linecap:round; stroke-linejoin:round; stroke-width:2; stroke-opacity:0.1; fill:none" points="
  1469.95,812.3 1469.95,330.415 
  "/>
<polyline clip-path="url(#clip230)" style="stroke:#000000; stroke-linecap:round; stroke-linejoin:round; stroke-width:4; stroke-opacity:1; fill:none" points="
  230.072,812.3 1537.01,812.3 
  "/>
<polyline clip-path="url(#clip230)" style="stroke:#000000; stroke-linecap:round; stroke-linejoin:round; stroke-width:4; stroke-opacity:1; fill:none" points="
  267.061,812.3 267.061,793.402 
  "/>
<polyline clip-path="url(#clip230)" style="stroke:#000000; stroke-linecap:round; stroke-linejoin:round; stroke-width:4; stroke-opacity:1; fill:none" points="
  567.782,812.3 567.782,793.402 
  "/>
<polyline clip-path="url(#clip230)" style="stroke:#000000; stroke-linecap:round; stroke-linejoin:round; stroke-width:4; stroke-opacity:1; fill:none" points="
  868.504,812.3 868.504,793.402 
  "/>
<polyline clip-path="url(#clip230)" style="stroke:#000000; stroke-linecap:round; stroke-linejoin:round; stroke-width:4; stroke-opacity:1; fill:none" points="
  1169.23,812.3 1169.23,793.402 
  "/>
<polyline clip-path="url(#clip230)" style="stroke:#000000; stroke-linecap:round; stroke-linejoin:round; stroke-width:4; stroke-opacity:1; fill:none" points="
  1469.95,812.3 1469.95,793.402 
  "/>
<g clip-path="url(#clip230)">
<text style="fill:#000000; fill-opacity:1; font-family:Arial,Helvetica Neue,Helvetica,sans-serif; font-size:48px; text-anchor:start;" transform="rotate(0, 229.426, 883.96)" x="229.426" y="883.96">10</text>
</g>
<g clip-path="url(#clip230)">
<text style="fill:#000000; fill-opacity:1; font-family:Arial,Helvetica Neue,Helvetica,sans-serif; font-size:38px; text-anchor:start;" transform="rotate(0, 282.951, 856.549)" x="282.951" y="856.549">2</text>
</g>
<g clip-path="url(#clip230)">
<text style="fill:#000000; fill-opacity:1; font-family:Arial,Helvetica Neue,Helvetica,sans-serif; font-size:48px; text-anchor:start;" transform="rotate(0, 530.148, 883.96)" x="530.148" y="883.96">10</text>
</g>
<g clip-path="url(#clip230)">
<text style="fill:#000000; fill-opacity:1; font-family:Arial,Helvetica Neue,Helvetica,sans-serif; font-size:38px; text-anchor:start;" transform="rotate(0, 583.672, 856.549)" x="583.672" y="856.549">3</text>
</g>
<g clip-path="url(#clip230)">
<text style="fill:#000000; fill-opacity:1; font-family:Arial,Helvetica Neue,Helvetica,sans-serif; font-size:48px; text-anchor:start;" transform="rotate(0, 830.869, 883.96)" x="830.869" y="883.96">10</text>
</g>
<g clip-path="url(#clip230)">
<text style="fill:#000000; fill-opacity:1; font-family:Arial,Helvetica Neue,Helvetica,sans-serif; font-size:38px; text-anchor:start;" transform="rotate(0, 884.394, 856.549)" x="884.394" y="856.549">4</text>
</g>
<g clip-path="url(#clip230)">
<text style="fill:#000000; fill-opacity:1; font-family:Arial,Helvetica Neue,Helvetica,sans-serif; font-size:48px; text-anchor:start;" transform="rotate(0, 1131.59, 883.96)" x="1131.59" y="883.96">10</text>
</g>
<g clip-path="url(#clip230)">
<text style="fill:#000000; fill-opacity:1; font-family:Arial,Helvetica Neue,Helvetica,sans-serif; font-size:38px; text-anchor:start;" transform="rotate(0, 1185.12, 856.549)" x="1185.12" y="856.549">5</text>
</g>
<g clip-path="url(#clip230)">
<text style="fill:#000000; fill-opacity:1; font-family:Arial,Helvetica Neue,Helvetica,sans-serif; font-size:48px; text-anchor:start;" transform="rotate(0, 1432.31, 883.96)" x="1432.31" y="883.96">10</text>
</g>
<g clip-path="url(#clip230)">
<text style="fill:#000000; fill-opacity:1; font-family:Arial,Helvetica Neue,Helvetica,sans-serif; font-size:38px; text-anchor:start;" transform="rotate(0, 1485.84, 856.549)" x="1485.84" y="856.549">6</text>
</g>
<g clip-path="url(#clip230)">
<text style="fill:#000000; fill-opacity:1; font-family:Arial,Helvetica Neue,Helvetica,sans-serif; font-size:59px; text-anchor:middle;" transform="rotate(0, 883.54, 960.839)" x="883.54" y="960.839">E / GeV</text>
</g>
<polyline clip-path="url(#clip232)" style="stroke:#000000; stroke-linecap:round; stroke-linejoin:round; stroke-width:2; stroke-opacity:0.1; fill:none" points="
  230.072,753.618 1537.01,753.618 
  "/>
<polyline clip-path="url(#clip232)" style="stroke:#000000; stroke-linecap:round; stroke-linejoin:round; stroke-width:2; stroke-opacity:0.1; fill:none" points="
  230.072,649.822 1537.01,649.822 
  "/>
<polyline clip-path="url(#clip232)" style="stroke:#000000; stroke-linecap:round; stroke-linejoin:round; stroke-width:2; stroke-opacity:0.1; fill:none" points="
  230.072,546.027 1537.01,546.027 
  "/>
<polyline clip-path="url(#clip232)" style="stroke:#000000; stroke-linecap:round; stroke-linejoin:round; stroke-width:2; stroke-opacity:0.1; fill:none" points="
  230.072,442.231 1537.01,442.231 
  "/>
<polyline clip-path="url(#clip232)" style="stroke:#000000; stroke-linecap:round; stroke-linejoin:round; stroke-width:2; stroke-opacity:0.1; fill:none" points="
  230.072,338.436 1537.01,338.436 
  "/>
<polyline clip-path="url(#clip230)" style="stroke:#000000; stroke-linecap:round; stroke-linejoin:round; stroke-width:4; stroke-opacity:1; fill:none" points="
  230.072,812.3 230.072,330.415 
  "/>
<polyline clip-path="url(#clip230)" style="stroke:#000000; stroke-linecap:round; stroke-linejoin:round; stroke-width:4; stroke-opacity:1; fill:none" points="
  230.072,753.618 248.97,753.618 
  "/>
<polyline clip-path="url(#clip230)" style="stroke:#000000; stroke-linecap:round; stroke-linejoin:round; stroke-width:4; stroke-opacity:1; fill:none" points="
  230.072,649.822 248.97,649.822 
  "/>
<polyline clip-path="url(#clip230)" style="stroke:#000000; stroke-linecap:round; stroke-linejoin:round; stroke-width:4; stroke-opacity:1; fill:none" points="
  230.072,546.027 248.97,546.027 
  "/>
<polyline clip-path="url(#clip230)" style="stroke:#000000; stroke-linecap:round; stroke-linejoin:round; stroke-width:4; stroke-opacity:1; fill:none" points="
  230.072,442.231 248.97,442.231 
  "/>
<polyline clip-path="url(#clip230)" style="stroke:#000000; stroke-linecap:round; stroke-linejoin:round; stroke-width:4; stroke-opacity:1; fill:none" points="
  230.072,338.436 248.97,338.436 
  "/>
<g clip-path="url(#clip230)">
<text style="fill:#000000; fill-opacity:1; font-family:Arial,Helvetica Neue,Helvetica,sans-serif; font-size:48px; text-anchor:middle;" transform="rotate(0, 165.928, 771.118)" x="165.928" y="771.118">−32</text>
</g>
<g clip-path="url(#clip230)">
<text style="fill:#000000; fill-opacity:1; font-family:Arial,Helvetica Neue,Helvetica,sans-serif; font-size:48px; text-anchor:middle;" transform="rotate(0, 165.928, 667.322)" x="165.928" y="667.322">−30</text>
</g>
<g clip-path="url(#clip230)">
<text style="fill:#000000; fill-opacity:1; font-family:Arial,Helvetica Neue,Helvetica,sans-serif; font-size:48px; text-anchor:middle;" transform="rotate(0, 165.928, 563.527)" x="165.928" y="563.527">−28</text>
</g>
<g clip-path="url(#clip230)">
<text style="fill:#000000; fill-opacity:1; font-family:Arial,Helvetica Neue,Helvetica,sans-serif; font-size:48px; text-anchor:middle;" transform="rotate(0, 165.928, 459.731)" x="165.928" y="459.731">−26</text>
</g>
<g clip-path="url(#clip230)">
<text style="fill:#000000; fill-opacity:1; font-family:Arial,Helvetica Neue,Helvetica,sans-serif; font-size:48px; text-anchor:middle;" transform="rotate(0, 165.928, 355.936)" x="165.928" y="355.936">−24</text>
</g>
<g clip-path="url(#clip230)">
<text style="fill:#000000; fill-opacity:1; font-family:Arial,Helvetica Neue,Helvetica,sans-serif; font-size:59px; text-anchor:middle;" transform="rotate(-90, 90.5102, 571.357)" x="90.5102" y="571.357">log10[ σ / cm² ]</text>
</g>
<g clip-path="url(#clip230)">
<text style="fill:#000000; fill-opacity:1; font-family:Arial,Helvetica Neue,Helvetica,sans-serif; font-size:59px; text-anchor:start;" transform="rotate(0, 230.072, 140.962)" x="230.072" y="140.962"> g = 1e+00 </text>
</g>
<g clip-path="url(#clip230)">
<text style="fill:#000000; fill-opacity:1; font-family:Arial,Helvetica Neue,Helvetica,sans-serif; font-size:59px; text-anchor:start;" transform="rotate(0, 230.072, 203.836)" x="230.072" y="203.836"> mϕ = 0.3 GeV </text>
</g>
<g clip-path="url(#clip230)">
<text style="fill:#000000; fill-opacity:1; font-family:Arial,Helvetica Neue,Helvetica,sans-serif; font-size:59px; text-anchor:start;" transform="rotate(0, 230.072, 266.711)" x="230.072" y="266.711"> mχ = 10.0 keV </text>
</g>
<polyline clip-path="url(#clip232)" style="stroke:#6388b4; stroke-linecap:round; stroke-linejoin:round; stroke-width:8; stroke-opacity:1; fill:none" points="
  267.061,798.661 270.068,797.097 273.075,795.533 276.082,793.968 279.089,792.404 282.097,790.839 285.104,789.274 288.111,787.708 291.118,786.143 294.126,784.577 
  297.133,783.011 300.14,781.445 303.147,779.878 306.154,778.311 309.162,776.744 312.169,775.177 315.176,773.609 318.183,772.042 321.191,770.473 324.198,768.905 
  327.205,767.336 330.212,765.767 333.219,764.197 336.227,762.627 339.234,761.057 342.241,759.487 345.248,757.916 348.255,756.344 351.263,754.773 354.27,753.201 
  357.277,751.628 360.284,750.055 363.292,748.481 366.299,746.907 369.306,745.333 372.313,743.758 375.32,742.182 378.328,740.606 381.335,739.03 384.342,737.453 
  387.349,735.875 390.356,734.296 393.364,732.717 396.371,731.138 399.378,729.557 402.385,727.976 405.393,726.394 408.4,724.812 411.407,723.229 414.414,721.644 
  417.421,720.06 420.429,718.474 423.436,716.887 426.443,715.299 429.45,713.711 432.457,712.121 435.465,710.531 438.472,708.939 441.479,707.346 444.486,705.752 
  447.494,704.157 450.501,702.561 453.508,700.963 456.515,699.365 459.522,697.764 462.53,696.163 465.537,694.559 468.544,692.955 471.551,691.349 474.559,689.741 
  477.566,688.131 480.573,686.52 483.58,684.907 486.587,683.292 489.595,681.674 492.602,680.055 495.609,678.434 498.616,676.811 501.623,675.185 504.631,673.556 
  507.638,671.926 510.645,670.292 513.652,668.656 516.66,667.017 519.667,665.376 522.674,663.731 525.681,662.083 528.688,660.431 531.696,658.776 534.703,657.118 
  537.71,655.455 540.717,653.789 543.724,652.119 546.732,650.444 549.739,648.765 552.746,647.082 555.753,645.393 558.761,643.699 561.768,642 564.775,640.296 
  567.782,638.585 570.789,636.869 573.797,635.146 576.804,633.416 579.811,631.68 582.818,629.936 585.826,628.184 588.833,626.425 591.84,624.656 594.847,622.88 
  597.854,621.093 600.862,619.297 603.869,617.491 606.876,615.674 609.883,613.845 612.89,612.005 615.898,610.152 618.905,608.286 621.912,606.405 624.919,604.51 
  627.927,602.599 630.934,600.672 633.941,598.727 636.948,596.764 639.955,594.781 642.963,592.778 645.97,590.752 648.977,588.703 651.984,586.629 654.991,584.528 
  657.999,582.399 661.006,580.24 664.013,578.048 667.02,575.822 670.028,573.559 673.035,571.255 676.042,568.909 679.049,566.517 682.056,564.074 685.064,561.577 
  688.071,559.022 691.078,556.402 694.085,553.712 697.092,550.946 700.1,548.096 703.107,545.153 706.114,542.107 709.121,538.947 712.129,535.658 715.136,532.226 
  718.143,528.631 721.15,524.85 724.157,520.856 727.165,516.613 730.172,512.079 733.179,507.199 736.186,501.901 739.194,496.087 742.201,489.625 745.208,482.321 
  748.215,473.88 751.222,463.826 754.23,451.298 757.237,434.493 760.244,408.441 763.251,344.053 766.258,377.137 769.266,417.328 772.273,437.772 775.28,451.457 
  778.287,461.688 781.295,469.819 784.302,476.537 787.309,482.239 790.316,487.178 793.323,491.521 796.331,495.388 799.338,498.864 802.345,502.016 805.352,504.893 
  808.359,507.536 811.367,509.977 814.374,512.24 817.381,514.348 820.388,516.319 823.396,518.167 826.403,519.906 829.41,521.546 832.417,523.096 835.424,524.567 
  838.432,525.963 841.439,527.292 844.446,528.56 847.453,529.771 850.46,530.931 853.468,532.042 856.475,533.108 859.482,534.134 862.489,535.121 865.497,536.073 
  868.504,536.992 871.511,537.879 874.518,538.738 877.525,539.57 880.533,540.377 883.54,541.16 886.547,541.922 889.554,542.662 892.562,543.383 895.569,544.085 
  898.576,544.77 901.583,545.439 904.59,546.093 907.598,546.732 910.605,547.357 913.612,547.97 916.619,548.57 919.626,549.159 922.634,549.737 925.641,550.305 
  928.648,550.864 931.655,551.413 934.663,551.954 937.67,552.486 940.677,553.01 943.684,553.528 946.691,554.038 949.699,554.542 952.706,555.04 955.713,555.531 
  958.72,556.018 961.727,556.499 964.735,556.974 967.742,557.446 970.749,557.913 973.756,558.375 976.764,558.834 979.771,559.289 982.778,559.74 985.785,560.188 
  988.792,560.632 991.8,561.074 994.807,561.513 997.814,561.949 1000.82,562.383 1003.83,562.814 1006.84,563.243 1009.84,563.67 1012.85,564.095 1015.86,564.518 
  1018.86,564.94 1021.87,565.359 1024.88,565.778 1027.89,566.194 1030.89,566.61 1033.9,567.024 1036.91,567.437 1039.92,567.849 1042.92,568.259 1045.93,568.669 
  1048.94,569.078 1051.94,569.487 1054.95,569.894 1057.96,570.301 1060.97,570.707 1063.97,571.113 1066.98,571.518 1069.99,571.922 1072.99,572.326 1076,572.73 
  1079.01,573.134 1082.02,573.537 1085.02,573.94 1088.03,574.343 1091.04,574.745 1094.04,575.147 1097.05,575.55 1100.06,575.952 1103.07,576.354 1106.07,576.756 
  1109.08,577.158 1112.09,577.56 1115.1,577.963 1118.1,578.365 1121.11,578.767 1124.12,579.17 1127.12,579.572 1130.13,579.975 1133.14,580.378 1136.15,580.781 
  1139.15,581.184 1142.16,581.588 1145.17,581.992 1148.17,582.396 1151.18,582.8 1154.19,583.205 1157.2,583.609 1160.2,584.014 1163.21,584.42 1166.22,584.826 
  1169.23,585.232 1172.23,585.638 1175.24,586.045 1178.25,586.452 1181.25,586.859 1184.26,587.267 1187.27,587.675 1190.28,588.083 1193.28,588.492 1196.29,588.901 
  1199.3,589.311 1202.3,589.721 1205.31,590.131 1208.32,590.542 1211.33,590.953 1214.33,591.364 1217.34,591.776 1220.35,592.188 1223.36,592.601 1226.36,593.014 
  1229.37,593.427 1232.38,593.841 1235.38,594.256 1238.39,594.67 1241.4,595.085 1244.41,595.501 1247.41,595.917 1250.42,596.333 1253.43,596.75 1256.43,597.167 
  1259.44,597.585 1262.45,598.003 1265.46,598.421 1268.46,598.84 1271.47,599.259 1274.48,599.679 1277.49,600.099 1280.49,600.519 1283.5,600.94 1286.51,601.361 
  1289.51,601.783 1292.52,602.205 1295.53,602.627 1298.54,603.05 1301.54,603.473 1304.55,603.897 1307.56,604.321 1310.56,604.745 1313.57,605.17 1316.58,605.595 
  1319.59,606.02 1322.59,606.446 1325.6,606.872 1328.61,607.299 1331.62,607.726 1334.62,608.154 1337.63,608.581 1340.64,609.01 1343.64,609.438 1346.65,609.867 
  1349.66,610.296 1352.67,610.726 1355.67,611.156 1358.68,611.586 1361.69,612.017 1364.69,612.448 1367.7,612.879 1370.71,613.311 1373.72,613.743 1376.72,614.176 
  1379.73,614.608 1382.74,615.041 1385.74,615.475 1388.75,615.909 1391.76,616.343 1394.77,616.777 1397.77,617.212 1400.78,617.647 1403.79,618.083 1406.8,618.518 
  1409.8,618.954 1412.81,619.391 1415.82,619.828 1418.82,620.265 1421.83,620.702 1424.84,621.14 1427.85,621.578 1430.85,622.016 1433.86,622.454 1436.87,622.893 
  1439.87,623.332 1442.88,623.772 1445.89,624.212 1448.9,624.652 1451.9,625.092 1454.91,625.533 1457.92,625.974 1460.93,626.415 1463.93,626.856 1466.94,627.298 
  1469.95,627.74 1472.95,628.183 1475.96,628.625 1478.97,629.068 1481.98,629.511 1484.98,629.955 1487.99,630.398 1491,630.842 1494,631.286 1497.01,631.731 
  1500.02,632.176 
  "/>
<polyline clip-path="url(#clip232)" style="stroke:#000000; stroke-linecap:round; stroke-linejoin:round; stroke-width:4; stroke-opacity:1; fill:none" points="
  764.217,1294.18 764.217,-151.47 
  "/>
</svg>
